<svg width="87" height="72" viewBox="0 0 87 72" fill="none" xmlns="http://www.w3.org/2000/svg">
<path opacity="0.98" fill-rule="evenodd" clip-rule="evenodd" d="M44.806 0.00266009C45.1198 -0.00443704 45.4332 0.00266009 45.7465 0.024037C45.8231 0.0575987 45.8872 0.10745 45.9389 0.173675C46.4738 1.40054 47.0441 2.61188 47.6491 3.80774C48.3579 2.83193 49.0561 1.8486 49.744 0.857735C49.8223 0.779368 49.9009 0.700957 49.9792 0.62259C50.225 0.516817 50.4674 0.402835 50.706 0.28056C50.9048 0.229554 51.0831 0.265168 51.2404 0.387444C51.2545 0.430198 51.269 0.472951 51.2831 0.515705C51.3494 1.99772 51.4063 3.47987 51.4542 4.9621C51.7184 4.27714 52.0177 3.60732 52.352 2.95267C52.8321 2.58067 53.3238 2.2244 53.827 1.88383C56.7723 2.97242 59.7223 4.04841 62.677 5.11173C62.9147 5.20887 63.0285 5.38703 63.0191 5.64616C63.297 5.56065 63.5676 5.45376 63.8314 5.3255C63.9447 5.30139 64.0588 5.28001 64.1734 5.26137C66.3273 5.78771 68.5009 6.20097 70.6934 6.50123C71.3377 6.48853 71.9862 6.45292 72.6387 6.39435C73.159 6.70431 73.672 7.02497 74.1778 7.35631C74.7105 8.83315 75.2308 10.3153 75.7383 11.8027C75.7704 11.8295 75.8059 11.8508 75.8452 11.8668C76.4151 11.9523 76.9854 12.0378 77.5553 12.1234C77.7046 12.1636 77.8473 12.2206 77.9829 12.2944C79.7687 14.5385 81.6358 16.7189 83.5836 18.8357C83.7978 18.9856 84.0257 19.1139 84.2677 19.2205C84.8701 19.426 85.4686 19.6397 86.0633 19.8618C86.2241 20.0012 86.3023 20.1794 86.2985 20.3962C86.3288 20.7886 86.3648 21.1805 86.4054 21.5719C86.3921 21.7824 86.328 21.9748 86.213 22.1491C84.6747 23.6092 82.9859 24.8633 81.1467 25.9114C81.2681 26.7111 81.4036 27.5091 81.5528 28.3057C81.776 28.9512 82.0894 29.5498 82.4934 30.1013C82.9333 30.681 83.4036 31.2368 83.9043 31.7687C84.0094 31.9068 84.0595 32.0633 84.0539 32.239C83.7465 34.4686 83.3972 36.6918 83.0064 38.9086C82.903 40.0287 82.8388 41.1403 82.814 42.2434C82.823 42.2686 82.8371 42.29 82.8568 42.3075C82.8213 43.2665 82.7999 44.2284 82.7927 45.1934C82.7739 45.3165 82.7311 45.4302 82.6644 45.5354C81.3164 46.4944 80.2903 47.7201 79.5861 49.2122C79.4006 49.6693 79.2582 50.1396 79.1586 50.6231C79.0376 50.9151 78.8307 51.1221 78.5387 51.243C76.6186 51.6697 74.6947 52.0759 72.7669 52.4615C72.5997 52.4701 72.4428 52.4346 72.2966 52.3546C72.1342 52.2349 71.9845 52.0998 71.8477 51.9485C71.7498 51.7723 71.6288 51.6154 71.4843 51.4782C71.2158 51.8254 70.9379 52.1674 70.6506 52.5043C69.9362 53.2332 69.1598 53.8818 68.3205 54.4496C68.1363 54.5774 67.9366 54.6698 67.722 54.7275C67.4244 55.651 66.9614 56.4774 66.3325 57.2072C65.2632 58.2914 64.1302 59.2961 62.9336 60.2213C62.7339 60.3355 62.5347 60.4492 62.335 60.5634C62.1956 60.5967 62.0601 60.5899 61.9288 60.542C61.9075 60.592 61.872 60.6275 61.822 60.6489C61.6415 60.6647 61.4705 60.7074 61.3089 60.7771C60.4555 60.9336 59.6005 61.0691 58.7437 61.1833C57.8424 62.4869 56.9519 63.7981 56.0716 65.1166C55.0912 66.2825 53.9441 67.2445 52.6299 68.0025C52.0121 68.3676 51.3708 68.6883 50.706 68.9645C50.4542 68.8969 50.2049 68.826 49.9578 68.7507C49.9142 68.6567 49.8928 68.5566 49.8937 68.4514C49.9326 68.1953 49.9398 67.9388 49.915 67.6819C48.641 69.0205 47.4793 70.4459 46.4306 71.9572C46.3096 71.9714 46.1882 71.9859 46.0672 72C45.5169 71.9786 44.968 71.9504 44.4212 71.9145C43.077 70.3065 41.7089 68.7174 40.3168 67.1474C40.0953 67.2163 39.8675 67.259 39.6327 67.2757C37.6391 66.1786 35.5442 65.3236 33.3479 64.7105C32.6958 63.958 32.0901 63.1671 31.5309 62.3377C31.7753 59.4522 31.6186 56.5877 31.0606 53.7441C30.9979 53.5419 30.9267 53.3423 30.8469 53.1456C30.0066 54.8113 29.4223 56.5642 29.0939 58.4043C29.0466 58.6732 29.0252 58.9439 29.0298 59.2166C27.8212 59.3218 26.617 59.4501 25.4171 59.6014C24.9896 59.0315 24.562 58.4612 24.1345 57.8913C23.6571 57.4137 23.1797 56.9366 22.7023 56.459C22.2559 56.1195 21.8283 55.7561 21.4196 55.3688C20.3179 55.884 19.2348 56.4325 18.1704 57.0148C18.0308 57.055 17.8883 57.0764 17.7428 57.0789C15.2324 56.6437 12.7242 56.1948 10.2182 55.7322C9.96878 55.654 9.80486 55.4898 9.72649 55.2405C9.57185 54.5458 9.43645 53.8476 9.32033 53.1456C9.73923 50.3623 9.71076 47.5833 9.23482 44.8086C9.29464 44.3712 9.54402 44.1288 9.98301 44.0818C10.2008 44.1314 10.4075 44.1955 10.6029 44.2742C9.79511 41.4777 8.99703 38.6773 8.20873 35.8731C6.12158 34.8213 4.02665 33.7739 1.92393 32.7307C1.60122 32.5485 1.45159 32.2706 1.47502 31.897C1.42816 31.2843 1.39968 30.6712 1.38951 30.0586C1.44201 29.9064 1.51324 29.764 1.60328 29.631C2.01457 29.1291 2.42073 28.6229 2.82176 28.1133C1.88832 26.9233 0.95483 25.7333 0.0213876 24.5433C-0.00712919 24.3295 -0.00712919 24.1158 0.0213876 23.902C0.17466 22.7186 0.331395 21.5358 0.491679 20.3535C0.534433 20.2537 0.577186 20.1539 0.61994 20.0542C0.822679 19.8851 1.02935 19.7213 1.23987 19.5625C3.23899 18.2316 5.22704 16.8849 7.20402 15.5223C7.27627 15.2679 7.3404 15.0114 7.39641 14.7527C7.27072 14.1288 7.12822 13.5089 6.96887 12.8929C6.97281 12.6571 7.05831 12.4576 7.2254 12.2944C7.72754 11.9201 8.24058 11.5639 8.76453 11.2255C8.90703 11.197 9.04957 11.197 9.19207 11.2255C9.86262 11.7036 10.5752 12.1169 11.3298 12.4654C12.3178 12.8755 13.3153 13.2603 14.3225 13.6197C14.7252 13.6528 15.1242 13.7098 15.5196 13.7907C16.0232 13.9458 16.5363 14.074 17.0588 14.1755C17.1391 14.2415 17.2032 14.3199 17.2512 14.4107C17.2652 14.9545 17.2509 15.496 17.2084 16.0353C18.2013 14.9711 19.2345 13.9521 20.308 12.9784C18.9678 13.0697 17.6282 13.1837 16.2892 13.3205C16.0148 13.3577 15.744 13.3434 15.4769 13.2777C15.1617 12.9767 14.8339 12.6917 14.4935 12.4226C14.3216 12.199 14.3288 11.9782 14.5149 11.7599C15.91 10.5359 17.2354 9.23901 18.491 7.86935C18.6748 7.65161 18.7817 7.40218 18.8117 7.12116C18.7475 6.52949 18.6121 5.95232 18.4055 5.38963C18.2143 4.91584 18.0148 4.44555 17.807 3.97876C17.7447 3.64862 17.8801 3.44908 18.2131 3.38021C20.3648 3.49722 22.5096 3.58273 24.6476 3.63673C25.5449 3.62963 26.4285 3.62963 27.2983 3.63673C29.205 3.64297 31.0648 3.30808 32.8777 2.63202C33.9935 2.2604 35.0624 1.79011 36.0842 1.22114C36.2197 1.17933 36.3407 1.20071 36.4476 1.28527C36.5378 1.55146 36.652 1.80798 36.7896 2.05484C36.9837 1.80229 37.1616 1.53863 37.324 1.2639C37.6332 1.12289 37.9538 1.01601 38.286 0.943243C38.3882 0.976505 38.481 1.0264 38.5639 1.09288C38.7704 1.32803 38.9773 1.56317 39.1838 1.79832C39.2189 1.37125 39.2475 0.943713 39.2693 0.515705C39.3232 0.32451 39.4515 0.239003 39.6541 0.259183C39.9705 0.349436 40.2771 0.470557 40.5733 0.62259C40.6516 0.700957 40.7302 0.779368 40.8085 0.857735C41.4964 1.8486 42.1946 2.83193 42.9034 3.80774C43.5084 2.61188 44.0787 1.40054 44.6136 0.173675C44.6734 0.106552 44.7375 0.0495182 44.806 0.00266009ZM50.1502 2.48238C49.971 3.74691 49.8214 5.01528 49.7013 6.28746C49.6512 6.55959 49.5939 6.83039 49.5302 7.09979C48.5294 7.18277 47.5247 7.2469 46.5161 7.29218C46.1018 7.33275 45.6884 7.3826 45.2762 7.44182C44.8641 7.3826 44.4507 7.33275 44.0364 7.29218C43.0278 7.2469 42.0231 7.18277 41.0222 7.09979C40.9585 6.83039 40.9013 6.55959 40.8512 6.28746C40.7311 5.01528 40.5815 3.74691 40.4023 2.48238C41.0812 3.36841 41.7867 4.23776 42.5186 5.09036C42.702 5.20023 42.8662 5.33564 43.0103 5.49652C43.2784 5.59438 43.4853 5.51601 43.6302 5.26137C44.1912 4.03951 44.7401 2.81389 45.2762 1.58455C45.8124 2.81389 46.3613 4.03951 46.9223 5.26137C47.0672 5.51601 47.2741 5.59438 47.5422 5.49652C47.6863 5.33564 47.8504 5.20023 48.0339 5.09036C48.7658 4.23776 49.4712 3.36841 50.1502 2.48238ZM35.2291 3.50847C35.2548 3.51852 35.2689 3.53989 35.2719 3.5726C35.1881 3.97752 35.1098 4.38368 35.0367 4.79108C35.0128 4.88621 34.97 4.97172 34.9085 5.0476C32.0015 8.56816 29.2082 12.1738 26.5287 15.8643C25.7567 16.9642 25.0014 18.0758 24.2628 19.1991C23.6419 20.1765 23.1146 21.2026 22.6809 22.2774C22.6014 22.6153 22.5445 22.9574 22.5099 23.3035C22.2693 23.5272 21.9914 23.6911 21.6762 23.7951C20.6253 24.0962 19.5565 24.3099 18.4696 24.4364C15.6496 24.7384 12.8279 25.0234 10.0044 25.2915C8.49762 25.5088 6.9941 25.7297 5.49387 25.9542C5.30721 25.9582 5.11481 25.9439 4.91669 25.9114C4.56795 25.9692 4.21878 26.012 3.86923 26.0397C3.8207 26.03 3.77081 26.0158 3.71959 25.9969C3.22168 25.3921 2.71577 24.7936 2.20183 24.2013C2.251 23.488 2.32222 22.7755 2.4156 22.0636C4.47086 20.5215 6.50166 18.9468 8.50801 17.3393C8.83384 17.0565 9.11174 16.7359 9.34171 16.3774C9.39784 16.2098 9.4406 16.0387 9.46997 15.8643C9.49643 15.4217 9.53205 14.9799 9.57685 14.5389C10.1857 14.8859 10.827 15.1638 11.5008 15.3726C12.4561 15.6685 13.4252 15.9108 14.408 16.0995C13.548 16.5464 12.9851 17.2376 12.7193 18.173C12.5776 18.823 12.4921 19.4785 12.4627 20.1397C12.5458 20.2884 12.674 20.3739 12.8475 20.3962C13.5861 20.3648 14.3343 20.3007 15.0921 20.2038C15.9903 20.0862 16.7385 19.6942 17.3367 19.0281C17.8887 18.1902 18.5372 17.4277 19.282 16.7408C20.8398 15.323 22.4074 13.9549 23.9849 12.6364C24.361 12.3316 24.7244 12.011 25.0751 11.6744C25.3571 11.3068 25.6707 10.9647 26.0157 10.6483C26.0461 10.5685 26.0247 10.5044 25.9515 10.456C25.8161 10.4488 25.6808 10.4417 25.5454 10.4346C22.9423 10.7227 20.3415 11.0148 17.7428 11.311C18.5644 10.5892 19.3126 9.79827 19.9874 8.9382C20.7541 7.80745 20.804 6.64595 20.137 5.45376C22.9721 5.66599 25.8081 5.65176 28.645 5.41101C29.4856 5.30562 30.3121 5.13461 31.1248 4.89797C32.49 4.41203 33.858 3.94883 35.2291 3.50847ZM37.9226 3.93601C38.1479 4.11125 38.3689 4.29655 38.5853 4.49181C38.5925 4.57017 38.5994 4.64858 38.6067 4.72695C38.218 9.60417 38.2967 14.5422 38.8418 19.5411C38.9448 20.4132 39.0663 21.2825 39.2052 22.1491C39.1304 22.3662 39.0522 22.5799 38.9701 22.7904C38.932 22.9365 38.9534 23.0719 39.0342 23.1966C37.7379 23.3271 36.4412 23.4554 35.1436 23.5814C35.0136 23.8004 34.8995 24.0284 34.8016 24.2654C35.1038 24.8126 35.4172 25.3541 35.7422 25.8901C32.5621 25.7173 29.3698 25.532 26.1653 25.3343C25.5668 24.9922 24.9682 24.6502 24.3697 24.3082C24.3473 24.2842 24.3331 24.2557 24.3269 24.2227C24.5242 23.6358 24.7736 23.0728 25.0751 22.5339C25.7342 21.4294 26.404 20.3321 27.0845 19.2419C30.582 14.0561 34.1949 8.95414 37.9226 3.93601ZM64.1307 14.881C64.1781 14.8017 64.1499 14.7804 64.0452 14.8168C63.975 14.8651 63.9323 14.9292 63.9169 15.0092C63.9639 14.9622 64.0212 14.9337 64.0879 14.9237C63.8592 15.1593 63.6099 15.3731 63.3397 15.565C63.2884 15.6581 63.267 15.7579 63.2756 15.8643C63.5548 15.9467 63.8254 16.0535 64.0879 16.185C64.031 16.1992 63.9738 16.2135 63.9169 16.2277C63.9853 16.2394 64.0494 16.2608 64.1093 16.2918C64.512 17.0547 64.9678 17.7815 65.4774 18.4723C65.8318 18.9548 66.2021 19.4251 66.589 19.8832C66.6668 20.1533 66.8306 20.3528 67.0807 20.4817C67.3637 20.8288 67.6698 21.1566 67.9999 21.465C68.0285 21.4936 68.0285 21.522 67.9999 21.5506C65.7288 23.5521 63.4701 25.5686 61.2234 27.6002C61.1426 27.6601 61.0571 27.7101 60.9669 27.7499C60.7852 27.7015 60.6142 27.6301 60.4538 27.5361C61.3606 25.9267 61.6099 24.2166 61.202 22.4056C61.1165 21.5292 60.7813 20.7668 60.1973 20.1183C60.069 20.0898 59.9408 20.0898 59.8125 20.1183C58.8035 20.9846 57.8843 21.9323 57.0549 22.9614C56.3319 23.9514 55.8403 25.0487 55.5799 26.2535C55.3802 26.2535 55.181 26.2535 54.9813 26.2535C55.0074 25.9998 54.9719 25.7575 54.8745 25.5267C54.3114 24.8497 53.7488 24.1728 53.1857 23.4959C52.8518 23.4481 52.517 23.4124 52.181 23.389C52.1352 23.4223 52.0852 23.4152 52.0313 23.3676C52.0553 23.3366 52.0694 23.301 52.0741 23.2607C51.9984 23.0946 51.9343 22.9236 51.8817 22.7477C51.0591 21.0102 50.2541 19.2644 49.4661 17.5103C52.4114 13.4931 54.0502 8.99681 54.3828 4.02151C56.7184 4.89271 59.0485 5.7763 61.373 6.67225C61.3889 7.68496 61.5171 8.68253 61.7578 9.66501C61.8579 10.0214 61.993 10.3635 62.164 10.6911C62.1157 10.9001 62.1866 11.064 62.3778 11.1828C62.5377 11.2088 62.6941 11.1946 62.848 11.14C63.1358 10.8886 63.4496 10.6678 63.7886 10.4773C64.2794 11.6794 64.7638 12.8836 65.2423 14.09C64.8917 14.386 64.5214 14.6496 64.1307 14.881ZM63.6604 7.2708C64.388 7.45862 65.1148 7.65101 65.8408 7.84798C66.3996 7.97889 66.9622 8.07154 67.5296 8.12588C67.5437 8.11164 67.5582 8.09736 67.5723 8.08312C68.3765 8.12677 69.1743 8.15529 69.9665 8.16863C70.7173 8.14918 71.4655 8.11356 72.2111 8.06174C72.7584 9.54718 73.3142 11.0293 73.8785 12.5081C72.572 12.9698 71.2607 13.4187 69.9452 13.8549C69.905 13.8503 69.8691 13.836 69.8383 13.8121C69.6523 13.526 69.4458 13.2552 69.2184 12.9998C69.1376 12.9524 69.052 12.9167 68.9618 12.8929C67.8494 12.8104 66.7378 12.7178 65.627 12.615C65.1572 11.512 64.7083 10.4004 64.2803 9.28023C64.1431 9.18643 63.9934 9.15081 63.8314 9.17334C63.5017 9.34983 63.1811 9.54222 62.8694 9.75052C62.8433 9.59079 62.8574 9.43401 62.9122 9.28023C63.1661 8.61083 63.4154 7.94105 63.6604 7.2708ZM45.7038 10.007C46.788 10.0518 47.8855 10.1017 48.9958 10.1567C49.7282 10.5971 50.455 11.046 51.1763 11.5034C50.1002 13.0853 49.0245 14.6672 47.9484 16.2491C47.8911 16.3564 47.8556 16.4704 47.8415 16.5911C48.7107 18.6924 49.6085 20.7802 50.535 22.8545C50.3977 23.0361 50.2767 23.2285 50.1716 23.4317C50.1279 23.4825 50.0779 23.5252 50.0219 23.56C49.139 23.5191 48.2485 23.4764 47.3498 23.4317C47.2519 23.4381 47.145 23.4595 47.0292 23.4959C46.3665 24.2013 45.7038 24.9067 45.0411 25.6122C44.9919 25.7379 44.9492 25.8661 44.9128 25.9969C44.8701 25.8259 44.8273 25.6549 44.7846 25.4839C44.7512 25.4075 44.7012 25.3434 44.6349 25.2915C43.679 24.5711 42.7384 23.83 41.8132 23.0683C41.723 23.0445 41.6375 23.0088 41.5567 22.9614C41.1172 23.015 40.6751 23.0578 40.2313 23.0897C40.1488 23.088 40.0705 23.0737 39.9962 23.0469C39.9675 23.0042 39.9675 22.9614 39.9962 22.9187C40.9303 20.8222 41.835 18.7131 42.711 16.5911C42.6969 16.4704 42.6614 16.3564 42.6041 16.2491C41.528 14.6672 40.4523 13.0853 39.3762 11.5034C40.0975 11.046 40.8243 10.5971 41.5567 10.1567C41.7529 10.1483 41.9453 10.1269 42.1338 10.0925C42.1514 10.1121 42.1727 10.1264 42.198 10.1353C43.3716 10.0788 44.54 10.0361 45.7038 10.007ZM75.2894 13.8976C75.7079 13.9988 76.1214 14.1199 76.5292 14.261C77.8978 15.9207 79.3014 17.5525 80.7405 19.1563C81.5255 20.0129 82.3878 20.7753 83.3271 21.4437C83.4502 21.5124 83.5785 21.5694 83.7119 21.6147C82.3369 22.6227 80.9547 23.6204 79.5648 24.6075C75.5485 24.4838 71.5442 24.3414 67.551 24.1799C68.0965 23.5663 68.5741 22.9036 68.9832 22.1919C69.0858 21.9049 69.1927 21.6199 69.3039 21.3368C69.1559 21.0486 68.9708 20.785 68.7481 20.5458C71.3958 20.806 74.032 21.1623 76.6575 21.6147C77.1419 21.666 77.6263 21.6945 78.1111 21.7002C78.1398 21.6717 78.168 21.6432 78.1966 21.6147C77.5186 20.9936 76.87 20.3452 76.2514 19.6694C75.8302 19.1194 75.4595 18.5351 75.1397 17.9165C72.6481 18.6116 70.1111 19.1389 67.5296 19.4984C66.5488 18.2364 65.7083 16.8825 65.0071 15.4368C64.9785 15.3798 64.9785 15.3227 65.0071 15.2658C65.2735 15.0435 65.5514 14.8368 65.8408 14.6458C65.9776 14.5215 66.0777 14.3719 66.1401 14.1969C66.6784 14.628 67.1841 15.0982 67.6578 15.6078C67.766 15.8156 67.9156 15.9795 68.1068 16.0995C69.191 16.0443 70.2739 15.9587 71.356 15.8429C71.71 15.7829 72.0521 15.6832 72.3821 15.5437C73.3471 14.983 74.3159 14.4343 75.2894 13.8976ZM41.0009 24.0303C41.2155 24.0035 41.4152 24.0391 41.5994 24.1372C42.4331 24.7998 43.2668 25.4625 44.1005 26.1252C44.0958 27.118 44.0813 28.1299 44.0578 29.1607C43.3369 29.8961 42.6029 30.6156 41.8559 31.3198C41.7875 31.3313 41.7234 31.3527 41.6636 31.3839C40.9132 31.3865 40.1723 31.3865 39.4404 31.3839C38.7849 31.4126 38.1291 31.4408 37.4737 31.4694C37.2432 31.4776 37.0081 31.463 36.7682 31.4267C37.292 30.4506 37.8264 29.4818 38.3715 28.5194C38.5177 28.2838 38.5036 28.0555 38.3288 27.8354C37.6716 26.7416 37.0089 25.6514 36.3407 24.5647C37.9004 24.386 39.4536 24.2079 41.0009 24.0303ZM47.5422 24.3723C49.2523 24.4338 50.9625 24.4979 52.6726 24.5647C53.0788 25.0849 53.485 25.605 53.8911 26.1252C53.9099 27.1517 53.8954 28.1778 53.8484 29.2035C53.4268 29.5964 53.0066 29.9884 52.5871 30.3792C50.7517 30.4331 48.8706 30.4472 46.9436 30.422C46.6093 30.0521 46.2673 29.6887 45.9176 29.3317C45.8551 28.2189 45.8338 27.1218 45.8534 26.0397C46.4379 25.505 47.0009 24.9492 47.5422 24.3723ZM71.3988 25.6549C73.6925 25.6775 75.973 25.7203 78.2394 25.7832C78.4288 26.5802 78.6212 27.3783 78.8166 28.1774C79.0043 28.8546 79.2749 29.4959 79.6289 30.1013C80.1753 30.8187 80.6883 31.5601 81.168 32.3245C81.2116 32.4186 81.233 32.5186 81.2322 32.6238C80.8739 35.3613 80.6387 38.0975 80.5267 40.8325C80.5126 41.8586 80.4981 42.8847 80.484 43.9108C79.1924 45.3674 78.1022 46.9634 77.2133 48.6992C75.8499 49.2041 74.4531 49.5889 73.0234 49.8535C72.7601 49.5402 72.4894 49.234 72.2111 48.9343C72.5352 48.1139 72.6562 47.2661 72.5745 46.3905C72.1855 45.9309 71.7725 45.4892 71.3347 45.0651C71.1778 44.8655 71.0213 44.6662 70.8644 44.4666C70.675 43.9369 70.5253 43.3952 70.4155 42.8419C70.5501 42.2177 70.6711 41.5905 70.7789 40.9608C70.8776 39.8457 70.9918 38.7341 71.1209 37.626C70.9554 37.3177 70.7135 37.1039 70.3941 36.9847C70.2774 36.9894 70.1705 37.0253 70.0734 37.0915C69.5796 37.5841 68.9883 37.8906 68.2991 38.0108C68.2705 37.7115 68.2705 37.4122 68.2991 37.1129C68.7224 36.2514 69.1786 35.4109 69.6673 34.5905C69.8332 34.2642 69.9828 33.9291 70.1162 33.5857C69.7498 32.4087 69.5715 31.2044 69.5818 29.973C70.3996 28.6237 71.0055 27.1842 71.3988 25.6549ZM40.5306 26.3817C40.5592 26.3817 40.5874 26.3817 40.6161 26.3817C40.6302 26.4102 40.6447 26.4387 40.6588 26.4672C40.5934 26.4704 40.5507 26.4418 40.5306 26.3817ZM64.9857 26.51C65.0285 26.5063 65.064 26.5206 65.0926 26.5527C65.5625 27.2141 66.0969 27.8195 66.6959 28.3698C67.2021 28.6729 67.7151 28.9649 68.235 29.2462C68.321 30.7747 68.5347 32.2856 68.8763 33.7781C68.0007 35.4028 67.0961 37.0129 66.1615 38.6093C65.9845 38.9757 66.0486 39.2964 66.3539 39.5713C67.5561 39.5738 68.7104 39.31 69.8169 38.7803C69.701 40.0339 69.5441 41.2878 69.3466 42.5427C69.3727 43.3494 69.5364 44.1472 69.8383 44.9369C70.291 45.5038 70.7759 46.0455 71.2919 46.5615C71.2992 46.6115 71.306 46.6611 71.3133 46.7111C70.9764 47.8198 70.4847 48.8531 69.8383 49.8108C69.0563 50.55 68.2372 51.2413 67.3799 51.8844C67.0832 52.0297 66.7698 52.0725 66.4394 52.0126C66.4077 51.8822 66.3932 51.754 66.3966 51.6278C66.4471 50.7219 66.4898 49.8241 66.5249 48.9343C66.5377 48.6911 66.5163 48.4418 66.4607 48.1862C65.9477 47.3879 65.4346 46.5902 64.9216 45.7919C64.6719 45.3781 64.4436 44.9506 64.2375 44.5093C64.1606 44.455 64.0823 44.455 64.0024 44.5093C63.9472 45.7064 63.89 46.9035 63.8314 48.1006C63.866 49.4192 63.9088 50.7377 63.9596 52.0554C63.9177 52.4863 64.0246 52.8784 64.2803 53.2311C64.6014 53.6522 65.0075 53.9588 65.4988 54.1503C65.6771 54.164 65.8481 54.1713 66.0118 54.1717C65.5236 55.0045 64.9323 55.76 64.2375 56.4376C64.2127 56.2363 64.2555 56.037 64.3658 55.8391C64.5219 55.1884 64.5505 54.5329 64.4513 53.8724C64.4312 53.8113 64.3957 53.7612 64.3444 53.7228C63.5475 53.2815 62.7852 52.7899 62.0571 52.2478C61.6231 51.3029 61.4021 50.3123 61.3944 49.2764C61.4393 48.1986 61.5175 47.1224 61.6296 46.0485C61.668 45.4764 61.6539 44.9065 61.5868 44.3383C61.3966 44.1895 61.2183 44.0254 61.0524 43.8466C60.9998 43.8133 60.9429 43.7919 60.8814 43.7825C60.5342 43.9347 60.2067 44.1198 59.898 44.3383C59.8514 43.5427 59.8301 42.759 59.8339 41.9869C60.1139 41.4195 60.4201 40.871 60.7531 40.3408C60.7916 40.139 60.8343 39.9398 60.8814 39.7423C60.5137 36.9654 60.2999 34.1792 60.2401 31.3839C60.0699 31.2351 59.9057 31.0782 59.7484 30.9136C59.7129 30.5566 59.7197 30.2001 59.7698 29.8448C60.7933 29.4869 61.7912 29.0667 62.7625 28.5835C63.6193 28.0188 64.3607 27.3274 64.9857 26.51ZM11.3298 26.852C11.4024 26.8452 11.4737 26.8523 11.5435 26.8734C12.6098 27.749 13.7499 28.5186 14.9638 29.1821C15.1447 29.2501 15.33 29.3001 15.5196 29.3317C16.2662 29.1949 17.0072 29.0312 17.7428 28.8401C19.3392 28.4198 20.9354 27.9991 22.5312 27.5788C22.574 27.5861 22.6168 27.5929 22.6595 27.6002C23.1815 28.0513 23.716 28.4856 24.2628 28.9042C24.3198 29.4258 24.3697 29.9461 24.4124 30.4647C23.3507 31.5408 22.2747 32.6024 21.1845 33.6499C21.036 33.8611 21.0574 34.0535 21.2486 34.227C22.3872 34.829 23.5772 35.2779 24.8186 35.5738C25.3874 37.009 25.9147 38.4627 26.4005 39.9347C26.5914 40.4588 26.8052 40.9719 27.0418 41.4738C27.1679 42.1087 27.3461 42.7286 27.5762 43.3336C27.0793 45.1605 26.4451 46.9347 25.6736 48.6564C25.5848 48.8484 25.485 49.034 25.3744 49.2122C24.7232 49.8779 24.0463 50.512 23.3436 51.1148C21.4046 51.9891 19.4735 52.8797 17.5504 53.7869C15.8956 53.4744 14.2353 53.1819 12.5696 52.9104C12.6315 52.5658 12.6742 52.2165 12.6979 51.863C12.6362 50.6235 12.5222 49.3623 12.3558 48.0793C12.3701 48.0292 12.3844 47.9797 12.3986 47.9296C13.1397 48.2003 13.8807 48.4713 14.6218 48.742C14.7532 48.7193 14.8529 48.6552 14.9211 48.5496C13.3809 43.6153 11.8061 38.6914 10.1968 33.7781C10.1076 33.6157 9.97215 33.5088 9.79062 33.4575C8.05995 32.7272 6.33556 31.9863 4.61742 31.2343C5.59267 30.0239 6.57601 28.8196 7.56743 27.6216C8.82781 27.3693 10.0819 27.1128 11.3298 26.852ZM36.298 48.4854C36.4583 48.3892 36.6011 48.2682 36.7255 48.122C36.8144 48.0493 36.914 47.9993 37.0248 47.9724C37.2398 47.8322 37.4468 47.6752 37.6447 47.5021C38.2484 50.1733 38.9324 52.8241 39.6969 55.4543C39.9051 56.1289 40.1261 56.7985 40.3596 57.4637C40.0261 58.3149 39.7054 59.17 39.3976 60.0289C39.4019 61.4693 39.3878 62.9375 39.3549 64.4326C37.8769 63.9721 36.3732 63.6087 34.8443 63.3424C34.6532 63.194 34.4754 63.0303 34.3099 62.8507C34.1248 62.6369 33.9392 62.4232 33.7541 62.2094C33.8063 61.4249 33.8704 60.6412 33.9465 59.8579C33.9456 59.5646 33.9456 59.2722 33.9465 58.9815C33.787 57.6506 33.6233 56.3183 33.4548 54.984C32.9901 53.2636 32.3414 51.6176 31.5095 50.0459C31.3726 49.9827 31.2301 49.9681 31.082 50.0032C30.3647 50.6778 29.6592 51.3687 28.9657 52.0767C28.4398 52.6437 27.998 53.2709 27.6403 53.9579C27.2439 54.9639 26.9802 56.0041 26.8494 57.0789C25.7172 55.9712 24.4488 55.052 23.0443 54.3213C22.3313 53.9887 21.6045 53.6894 20.8638 53.4235C21.9093 52.9647 22.9496 52.4944 23.9849 52.0126C24.8057 51.1776 25.6109 50.3298 26.4005 49.4688C26.6422 48.9288 26.8418 48.373 26.999 47.8014C27.0665 47.6522 27.1449 47.5094 27.2342 47.3738C28.5178 46.3683 29.8432 45.4204 31.2103 44.5307C31.8277 44.1793 32.4548 43.8513 33.0914 43.5474C32.0682 40.9907 31.2345 38.3754 30.5903 35.7021C30.41 34.8474 30.2389 33.9923 30.0773 33.1368C29.9589 34.3271 29.7309 35.4956 29.3932 36.6426C29.064 38.6311 28.6364 40.5978 28.1106 42.5427C27.4082 40.4251 26.6814 38.316 25.9302 36.2151C25.9246 35.9663 25.9673 35.7239 26.0584 35.4883C26.7919 32.9962 27.5187 30.5023 28.2389 28.0064C28.2505 27.9281 28.2862 27.864 28.3458 27.814C28.7879 27.7862 29.2296 27.7721 29.6711 27.7712C31.1509 29.0526 32.8468 29.929 34.7588 30.4006C34.7729 30.4292 34.7875 30.4574 34.8016 30.4861C34.675 31.9085 34.6964 33.3194 34.8657 34.7187C35.3493 37.0813 35.9264 39.4182 36.5972 41.7303C37.1201 41.526 37.6332 41.2977 38.1364 41.0463C38.2608 41.7474 38.4104 42.446 38.5853 43.1412C38.8405 43.8928 39.1043 44.641 39.3762 45.3858C38.5652 46.1378 37.7456 46.886 36.9179 47.6304C36.6844 47.8988 36.4775 48.184 36.298 48.4854ZM55.8792 30.5288C56.4337 30.7918 56.9895 31.0556 57.5466 31.3198C58.1892 31.5934 58.8446 31.8286 59.5132 32.0252C59.5496 33.5674 59.6206 35.0992 59.727 36.6213C59.8497 37.6379 59.9566 38.6568 60.0477 39.6782C58.8685 41.7658 57.8138 43.9176 56.8839 46.134C56.7685 46.4662 56.6616 46.8014 56.5632 47.1387C56.5876 47.2511 56.659 47.3007 56.777 47.2883C57.3148 47.2464 57.8279 47.1109 58.3161 46.8822C59.1058 46.4555 59.8399 45.9493 60.518 45.3644C60.441 46.1412 60.3628 46.9176 60.2828 47.6945C60.252 49.1545 60.4158 50.6009 60.7745 52.034C61.2046 53.3187 62.0951 54.0383 63.4466 54.1931C63.4842 54.4073 63.4487 54.6138 63.3397 54.813C62.6569 55.7416 61.8801 56.5894 61.0096 57.3568C60.7903 57.5155 60.5479 57.5868 60.2828 57.5706C59.6843 57.3427 59.0857 57.1144 58.4872 56.8865C58.2781 56.4735 58.1285 56.0387 58.0382 55.5826C57.9087 54.8451 57.8232 54.1041 57.7817 53.3594C56.5077 52.4414 55.5671 51.2589 54.96 49.8108C54.9313 49.8394 54.9031 49.8677 54.8745 49.8963C54.8103 51.7672 54.789 53.6343 54.8103 55.497C54.8539 56.3119 54.9322 57.1243 55.0455 57.934C55.1789 58.2525 55.364 58.5377 55.6013 58.7891C56.1443 59.2966 56.7073 59.781 57.2901 60.2427C56.2387 62.1799 54.9134 63.9114 53.314 65.4373C52.7629 65.8802 52.1857 66.2864 51.5824 66.6558C51.6889 65.6771 51.7671 64.6938 51.8176 63.7058C51.7534 62.8054 51.7034 61.9075 51.6679 61.0123C51.399 60.4603 51.1425 59.9045 50.8984 59.3449C50.8697 53.559 50.8697 47.7727 50.8984 41.9869C51.2276 41.2626 51.4486 40.5071 51.5611 39.7209C51.5632 39.6016 51.5418 39.4875 51.4969 39.3789C51.3109 39.2113 51.1044 39.083 50.877 38.9941C50.8697 37.968 50.877 36.9419 50.8984 35.9158C51.1425 35.5481 51.3349 35.1565 51.4755 34.7401C51.3345 34.3224 51.1421 33.9303 50.8984 33.5644C50.8629 33.3207 50.8701 33.0787 50.9197 32.8376C52.6744 32.2736 54.3276 31.5041 55.8792 30.5288ZM45.1907 32.581C46.5247 32.6293 47.85 32.6794 49.1668 32.7307C49.5692 33.3467 49.9539 33.9739 50.3212 34.6118C48.6812 35.446 47.0279 36.2583 45.3618 37.0488C45.3049 37.0774 45.2476 37.0774 45.1907 37.0488C43.5246 36.2583 41.8713 35.446 40.2313 34.6118C40.5986 33.9739 40.9833 33.3467 41.3857 32.7307C42.6516 32.6824 43.9201 32.6328 45.1907 32.581ZM50.3212 40.1057C50.0108 41.1335 49.747 42.1737 49.5302 43.2267C49.4819 43.9099 49.4533 44.594 49.4447 45.2789C48.7962 47.6449 48.148 50.0105 47.4994 52.376C48.2399 55.0105 48.974 57.6467 49.7013 60.2855C49.7265 61.9524 49.7406 63.5771 49.744 65.1594C48.7359 66.0388 47.7671 66.9653 46.8368 67.9384C46.3058 68.5263 45.8068 69.1393 45.3404 69.7768C43.9466 68.1265 42.4361 66.5874 40.8085 65.1594C40.8119 63.5771 40.826 61.9524 40.8512 60.2855C41.5785 57.6467 42.3126 55.0105 43.0531 52.376C42.4045 50.0105 41.7563 47.6449 41.1078 45.2789C41.0992 44.594 41.0706 43.9099 41.0222 43.2267C40.811 42.1544 40.5331 41.0997 40.1885 40.0629C41.8649 39.5332 43.561 39.0484 45.2762 38.6093C46.9616 39.0591 48.6431 39.5225 50.3212 39.9988C50.2211 40.0582 50.2211 40.0941 50.3212 40.1057Z" fill="white"/>
<path opacity="0.956" fill-rule="evenodd" clip-rule="evenodd" d="M57.119 8.46791C57.5209 9.41383 58.0126 10.3117 58.594 11.1614C59.1896 11.8995 59.8664 12.548 60.6248 13.1067C59.6372 13.7235 58.6966 14.4076 57.8031 15.1589C56.0202 16.322 54.4811 17.74 53.1857 19.4129C53.151 19.3997 53.1228 19.3783 53.1002 19.3487C53.2126 19.1168 53.3195 18.8817 53.4208 18.6433C54.0155 17.5541 54.5995 16.4567 55.1737 15.3513C55.7342 14.0588 56.2473 12.7477 56.7129 11.4179C56.9412 10.4467 57.0767 9.46334 57.119 8.46791Z" fill="white"/>
<path opacity="0.954" fill-rule="evenodd" clip-rule="evenodd" d="M34.9298 11.2469C34.9836 11.2452 35.0264 11.2666 35.058 11.311C34.5595 13.0777 34.1534 14.8662 33.8395 16.6766C33.7087 17.7742 33.7019 18.8715 33.8182 19.9687C32.4526 19.8777 31.113 20.0202 29.7993 20.3962C29.7238 20.399 29.6811 20.3634 29.6711 20.2893C30.2533 19.2885 30.8732 18.3123 31.5308 17.3607C32.774 15.3878 33.9071 13.3499 34.9298 11.2469Z" fill="white"/>
<path opacity="0.022" fill-rule="evenodd" clip-rule="evenodd" d="M64.1306 14.881C64.1019 14.881 64.0878 14.8952 64.0878 14.9237C64.0211 14.9337 63.9638 14.9622 63.9168 15.0092C63.9322 14.9292 63.975 14.8651 64.0451 14.8168C64.1498 14.7804 64.178 14.8018 64.1306 14.881Z" fill="white"/>
<path opacity="0.917" fill-rule="evenodd" clip-rule="evenodd" d="M49.5943 28.9897C49.6392 28.9961 49.682 28.9889 49.7226 28.9683C49.5819 28.7939 49.4468 28.6161 49.3164 28.4339C49.2523 27.7366 49.2382 27.0384 49.2737 26.339C49.3442 26.0125 49.4939 25.7274 49.7226 25.4839C49.9073 25.7098 50.0711 25.9521 50.2143 26.2107C50.2211 26.8664 50.2284 27.5147 50.2357 28.156C50.195 28.5293 50.024 28.8354 49.7226 29.0752C49.6696 29.0564 49.6268 29.0278 49.5943 28.9897Z" fill="white"/>
<path opacity="0.915" fill-rule="evenodd" clip-rule="evenodd" d="M40.4878 26.2962C40.3736 26.3105 40.3736 26.3247 40.4878 26.339C40.4878 26.3675 40.5019 26.3817 40.5305 26.3817C40.5506 26.4418 40.5934 26.4704 40.6588 26.4672C40.9115 26.6797 41.1825 26.8721 41.4711 27.0444C41.5224 27.0829 41.5579 27.1329 41.578 27.1941C41.578 27.5784 41.5639 27.9632 41.5352 28.3484C41.1411 28.696 40.7276 29.0235 40.2954 29.3317C40.2189 28.298 40.1693 27.2573 40.1458 26.2107C40.2304 26.2385 40.3086 26.2385 40.3809 26.2107C40.4365 26.2167 40.472 26.2451 40.4878 26.2962Z" fill="white"/>
<path opacity="0.02" fill-rule="evenodd" clip-rule="evenodd" d="M40.4878 26.339C40.4878 26.3247 40.4878 26.3105 40.4878 26.2962C40.5532 26.2931 40.596 26.3216 40.6161 26.3817C40.5874 26.3817 40.5592 26.3817 40.5306 26.3817C40.5019 26.3817 40.4878 26.3675 40.4878 26.339Z" fill="white"/>
<path opacity="0.012" fill-rule="evenodd" clip-rule="evenodd" d="M40.8298 26.2962C40.8952 26.2931 40.938 26.3216 40.9581 26.3817C40.8927 26.3849 40.8499 26.3563 40.8298 26.2962Z" fill="white"/>
<path opacity="0.01" fill-rule="evenodd" clip-rule="evenodd" d="M40.6161 26.3817C40.6815 26.3786 40.7242 26.4071 40.7443 26.4673C40.7157 26.4673 40.6875 26.4673 40.6588 26.4673C40.6447 26.4387 40.6302 26.4103 40.6161 26.3817Z" fill="white"/>
<path opacity="0.985" fill-rule="evenodd" clip-rule="evenodd" d="M74.8618 27.4078C74.9332 27.4078 75.0041 27.4078 75.0755 27.4078C75.2534 28.6614 75.6168 29.8585 76.1658 30.9991C76.5612 31.7191 76.946 32.4459 77.3201 33.1796C77.3624 36.2083 77.3765 39.201 77.3629 42.1579C76.7113 42.9339 76.07 43.7175 75.4389 44.5093C75.1397 44.9078 74.8618 45.3212 74.6052 45.7492C74.5236 45.712 74.4449 45.6692 74.3701 45.6209C74.1987 45.0348 73.9849 44.4649 73.7288 43.9108C73.3637 43.2391 72.9721 42.5837 72.5531 41.9441C72.6749 39.2562 72.6604 36.5554 72.5103 33.8423C72.5176 33.6358 72.5244 33.4288 72.5317 33.2223C72.875 32.6781 73.1743 32.1077 73.4295 31.5122C73.7775 30.5682 74.1337 29.6276 74.4984 28.6904C74.6416 28.2685 74.7626 27.8409 74.8618 27.4078Z" fill="white"/>
<path opacity="0.041" fill-rule="evenodd" clip-rule="evenodd" d="M49.3806 28.7332C49.4558 28.7657 49.4986 28.823 49.5088 28.9042C49.4336 28.8717 49.3908 28.8144 49.3806 28.7332Z" fill="white"/>
<path opacity="0.019" fill-rule="evenodd" clip-rule="evenodd" d="M40.7016 29.3317C40.8076 29.3424 40.8076 29.3706 40.7016 29.4172C40.6605 29.3972 40.6605 29.3685 40.7016 29.3317Z" fill="white"/>
<path opacity="0.953" fill-rule="evenodd" clip-rule="evenodd" d="M63.3183 29.4173C63.5988 29.8696 63.9267 30.2899 64.3016 30.6785C64.6573 30.9419 65.028 31.1843 65.4132 31.4053C65.4355 31.4292 65.45 31.4579 65.456 31.4908C64.6176 32.8653 64.0832 34.3545 63.8527 35.9586C63.7847 36.5999 63.7206 37.2412 63.6603 37.8825C63.5261 37.8697 63.4333 37.7983 63.3824 37.6687C63.2948 37.3592 63.2593 37.0526 63.2755 36.7495C63.152 34.3438 63.1306 31.9568 63.2114 29.5883C63.2396 29.525 63.2755 29.4677 63.3183 29.4173Z" fill="white"/>
<path opacity="0.966" fill-rule="evenodd" clip-rule="evenodd" d="M20.5645 30.6144C20.7459 30.5823 20.8884 30.6392 20.9921 30.7854C18.8671 32.1167 17.0216 33.77 15.4555 35.7448C15.2595 36.0368 15.0742 36.3361 14.8997 36.6426C14.6675 36.7782 14.4679 36.7354 14.3011 36.5144C13.4595 34.6952 12.5973 32.8854 11.7145 31.0846C11.7408 30.9316 11.8192 30.8174 11.9497 30.7426C14.8506 32.3792 17.7222 32.3365 20.5645 30.6144Z" fill="white"/>
<path opacity="0.318" fill-rule="evenodd" clip-rule="evenodd" d="M17.0587 30.8709C17.1313 30.864 17.2026 30.8713 17.2725 30.8923C16.9741 31.0073 16.6748 31.0218 16.3746 30.935C16.6105 30.9277 16.8385 30.9064 17.0587 30.8709Z" fill="white"/>
<path opacity="0.961" fill-rule="evenodd" clip-rule="evenodd" d="M54.2117 33.9919C54.3951 34.236 54.5948 34.4712 54.8103 34.6973C55.0595 34.8897 55.3092 35.0821 55.5585 35.2745C55.7047 36.3647 56.1677 37.2912 56.948 38.0535C55.8736 40.1938 55.0612 42.4315 54.511 44.7659C54.455 44.7312 54.405 44.6885 54.3614 44.6376C54.352 44.5123 54.3306 44.3913 54.2972 44.2742C54.2947 43.4268 54.2947 42.5858 54.2972 41.7517C54.2173 39.216 54.1673 36.6862 54.1476 34.1629C54.1814 34.1099 54.2028 34.0526 54.2117 33.9919Z" fill="white"/>
<path opacity="0.989" fill-rule="evenodd" clip-rule="evenodd" d="M19.4529 37.8397C20.274 38.0206 21.0863 38.2416 21.8899 38.5024C21.9682 38.5807 22.0467 38.6593 22.125 38.7376C22.6061 40.2203 23.0408 41.7167 23.429 43.2267C23.3763 43.3199 23.3763 43.4127 23.429 43.5046C22.6967 45.3328 21.9342 47.1498 21.1417 48.9557C21.0528 49.025 20.9602 49.0891 20.8638 49.1481C20.2868 49.3901 19.7025 49.6111 19.1109 49.8108C18.9051 49.7834 18.7697 49.6693 18.7047 49.4688C17.8223 46.9985 16.9459 44.526 16.0754 42.051C16.1204 41.8111 16.2273 41.6046 16.396 41.4311C17.247 40.4272 18.0879 39.4152 18.9185 38.3955C19.078 38.189 19.2562 38.0035 19.4529 37.8397Z" fill="white"/>
<path opacity="0.055" fill-rule="evenodd" clip-rule="evenodd" d="M33.1341 44.2528C33.1927 44.1857 33.2641 44.1502 33.3479 44.1459C33.2987 44.2263 33.2273 44.2622 33.1341 44.2528Z" fill="white"/>
<path opacity="0.01" fill-rule="evenodd" clip-rule="evenodd" d="M31.1674 44.8514C31.1472 44.9116 31.1045 44.9399 31.0392 44.9369C31.0594 44.8766 31.1022 44.8484 31.1674 44.8514Z" fill="white"/>
<path opacity="0.03" fill-rule="evenodd" clip-rule="evenodd" d="M31.0392 44.9369C30.9158 45.0886 30.759 45.1887 30.5689 45.2361C30.714 45.1199 30.8708 45.0202 31.0392 44.9369Z" fill="white"/>
<path opacity="0.013" fill-rule="evenodd" clip-rule="evenodd" d="M38.5211 46.0057C38.4886 46.081 38.4313 46.1237 38.3501 46.134C38.3826 46.0587 38.4399 46.016 38.5211 46.0057Z" fill="white"/>
<path opacity="0.01" fill-rule="evenodd" clip-rule="evenodd" d="M29.5001 46.2195C29.5323 46.1361 29.5894 46.1006 29.6711 46.1126C29.6296 46.1759 29.5726 46.2114 29.5001 46.2195Z" fill="white"/>
<path opacity="0.022" fill-rule="evenodd" clip-rule="evenodd" d="M38.3073 46.1767C38.2471 46.2798 38.1615 46.3512 38.0508 46.3905C38.1111 46.2875 38.1966 46.2161 38.3073 46.1767Z" fill="white"/>
<path opacity="0.059" fill-rule="evenodd" clip-rule="evenodd" d="M37.0247 47.9724C37.079 48.0019 37.079 48.0374 37.0247 48.0793C36.9358 48.1519 36.8362 48.202 36.7254 48.2289C36.825 48.1434 36.9251 48.0579 37.0247 47.9724Z" fill="white"/>
<path opacity="0.065" fill-rule="evenodd" clip-rule="evenodd" d="M25.4812 50.6231C25.5265 50.6902 25.5051 50.7471 25.4171 50.7941C25.4042 50.727 25.4256 50.6702 25.4812 50.6231Z" fill="white"/>
<path opacity="0.035" fill-rule="evenodd" clip-rule="evenodd" d="M29.0298 59.5587C29.0468 59.5146 29.0752 59.5078 29.1153 59.5373C29.0899 59.5569 29.0614 59.5642 29.0298 59.5587Z" fill="white"/>
<path opacity="0.01" fill-rule="evenodd" clip-rule="evenodd" d="M28.0464 59.6442C28.0634 59.6001 28.0919 59.5933 28.132 59.6228C28.1066 59.6425 28.078 59.6497 28.0464 59.6442Z" fill="white"/>
<path opacity="0.089" fill-rule="evenodd" clip-rule="evenodd" d="M27.6189 59.6869C27.7099 59.6386 27.8096 59.6313 27.9182 59.6655C27.8194 59.6869 27.7197 59.6938 27.6189 59.6869Z" fill="white"/>
</svg>
